<?xml version="1.0" encoding="UTF-8"?>
<svg width="40px" height="40px" viewBox="0 0 40 40" version="1.1" xmlns="http://www.w3.org/2000/svg" xmlns:xlink="http://www.w3.org/1999/xlink">
    <!-- Generator: Sketch 59 (86127) - https://sketch.com -->
    <title>验证码</title>
    <desc>Created with Sketch.</desc>
    <g id="4.0" stroke="none" stroke-width="1" fill="none" fill-rule="evenodd">
        <path d="M20,0 C8.95455435,0 0,8.95455435 0,20 C0,31.0454456 8.95455435,40 20,40 C31.0454456,40 40,31.0454456 40,20 C40,8.95455435 31.0454456,0 20,0 Z" id="路径备份" fill="#3B44AC" fill-rule="nonzero"></path>
        <g id="编组" transform="translate(11.000000, 9.000000)" fill="#FFFFFF" fill-rule="nonzero">
            <path d="M18.5760005,4.474205 C18.5099937,3.82720488 18.0330193,3.29723335 17.3965227,3.16367408 C16.1062904,2.96077957 14.8319298,2.66737008 13.5828777,2.28561836 C12.3596984,1.78386238 11.2127766,1.11335427 10.1754973,0.293611356 C9.63138469,-0.0978738186 8.89797189,-0.0978738186 8.35385929,0.293611356 C7.37183257,1.20187363 6.19846167,1.87812938 4.92026827,2.27251305 C3.7368375,2.76206672 2.48665539,3.07129904 1.21146574,3.1898847 C0.561113239,3.29490502 0.073957615,3.84227089 0.0450932139,4.50041562 C0.0450932139,4.50041562 0.00577729687,7.78984826 0.00577729687,10.6861216 C0.00577729687,15.9282453 6.19148328,20.9999975 9.28433625,20.9999975 C12.3771892,20.9999975 17.6193129,17.4222506 18.4580527,10.7647535 C18.6677377,6.83316067 18.5235793,4.48731031 18.5235793,4.48731031 L18.5760005,4.474205 Z M15.207936,8.52374558 L8.74701858,14.6177144 C8.45516062,14.8948022 8.01229383,14.9380087 7.67238322,14.7225569 L7.5020142,14.5783985 L3.93737008,10.8695959 C3.72199458,10.6354921 3.64787231,10.3042698 3.74292439,10.0006973 C3.83797648,9.69712473 4.08776227,9.46732181 4.39818986,9.39785306 C4.70861744,9.3283843 5.0325255,9.42980368 5.247901,9.66390748 L8.18349029,12.7436552 L14.0022476,7.23942526 C14.2363514,7.02404976 14.5675737,6.94992749 14.8711462,7.04497958 C15.1747188,7.14003167 15.4045217,7.38981745 15.4739905,7.70024504 C15.5434592,8.01067263 15.4420398,8.33458068 15.207936,8.54995618" id="形状"></path>
        </g>
    </g>
</svg>