<?xml version="1.0" encoding="UTF-8"?>
<svg width="40px" height="40px" viewBox="0 0 40 40" version="1.1" xmlns="http://www.w3.org/2000/svg" xmlns:xlink="http://www.w3.org/1999/xlink">
    <!-- Generator: Sketch 56.3 (81716) - https://sketch.com -->
    <title>邮箱</title>
    <desc>Created with Sketch.</desc>
    <g id="页面-1" stroke="none" stroke-width="1" fill="none" fill-rule="evenodd">
        <g id="编组备份-2" fill="#3B44AC" fill-rule="nonzero">
            <path d="M19.975142,0.0259232955 C8.95774148,0.0259232955 0.0259232955,8.95774148 0.0259232955,19.975142 C0.0259232955,30.9925426 8.95774148,39.9243608 19.975142,39.9243608 C30.9925426,39.9243608 39.9243608,30.9925426 39.9243608,19.975142 C39.9243608,8.95774148 30.9925426,0.0259232955 19.975142,0.0259232955 Z M30.2744141,25.9832653 C30.2744141,27.0845614 29.347745,27.9857511 28.214755,27.9857511 L11.7354847,27.9857511 C10.6025391,27.9857511 9.67582564,27.0846058 9.67582564,25.9832653 L9.68528054,16.0899325 L19.7283381,21.4158825 C19.8827696,21.4974312 20.0675145,21.4974312 20.221946,21.4158825 L30.2744141,16.0849165 L30.2744141,25.9832653 L30.2744141,25.9832653 Z M19.9801136,19.5353338 L9.68643466,13.9487305 C9.69642223,12.8556907 10.6091974,11.964533 11.7355291,11.964533 L28.2148437,11.964533 C29.3394886,11.964533 30.2611861,12.8523615 30.2745028,13.9431818 L19.9802024,19.5353338 L19.9801136,19.5353338 Z" id="形状"></path>
        </g>
    </g>
</svg>