<?xml version="1.0" encoding="UTF-8"?>
<svg width="40px" height="40px" viewBox="0 0 40 40" version="1.1" xmlns="http://www.w3.org/2000/svg" xmlns:xlink="http://www.w3.org/1999/xlink">
    <!-- Generator: Sketch 56.3 (81716) - https://sketch.com -->
    <title>手机</title>
    <desc>Created with Sketch.</desc>
    <g id="页面-1" stroke="none" stroke-width="1" fill="none" fill-rule="evenodd">
        <path d="M19.9492187,0 C8.93181818,0 0,8.93181818 0,19.9492187 C0,30.9666193 8.93181818,39.8984375 19.9492187,39.8984375 C30.9666193,39.8984375 39.8984375,30.9666193 39.8984375,19.9492187 C39.8984375,8.93181818 30.9666193,0 19.9492187,0 Z" id="路径备份" fill="#3B44AC" fill-rule="nonzero"></path>
        <path d="M26.407699,27.3009624 C26.407699,27.6655002 26.3347915,28.0045203 26.1889764,28.3180228 C26.0431613,28.6315253 25.8426655,28.908574 25.5874891,29.1491689 C25.3323127,29.3897638 25.0333917,29.5793234 24.6907262,29.7178478 C24.3480607,29.8563721 23.9798775,29.9256343 23.5861767,29.9256343 L15.8215223,29.9256343 C15.4278215,29.9256343 15.0596384,29.8563721 14.7169729,29.7178478 C14.3743074,29.5793234 14.0753864,29.3897638 13.82021,29.1491689 C13.5650335,28.908574 13.3645378,28.6315253 13.2187227,28.3180228 C13.0729076,28.0045203 13,27.6655002 13,27.3009624 L13,12.6465442 C13,12.2820064 13.0729076,11.9393409 13.2187227,11.6185477 C13.3645378,11.2977544 13.5650335,11.0170604 13.82021,10.7764654 C14.0753864,10.5358705 14.3743074,10.3463109 14.7169729,10.2077865 C15.0596384,10.0692622 15.4278215,10 15.8215223,10 L23.5861767,10 C23.9798775,10 24.3480607,10.0692622 24.6907262,10.2077865 C25.0333917,10.3463109 25.3323127,10.5358705 25.5874891,10.7764654 C25.8426655,11.0170604 26.0431613,11.2977544 26.1889764,11.6185477 C26.3347915,11.9393409 26.407699,12.2820064 26.407699,12.6465442 L26.407699,27.3009624 L26.407699,27.3009624 Z M24.6360455,13.696413 L14.7497813,13.696413 L14.7497813,26.2292214 L24.6360455,26.2292214 L24.6360455,13.696413 Z M19.6929134,26.8416448 C19.3867017,26.8416448 19.1205891,26.9510061 18.8945757,27.1697288 C18.6685622,27.3884515 18.5555556,27.6582094 18.5555556,27.9790026 C18.5555556,28.2852144 18.6685623,28.5513269 18.8945757,28.7773404 C19.1205891,29.0033538 19.3867017,29.1163605 19.6929134,29.1163605 C20.0137066,29.1163605 20.2834646,29.0033538 20.5021872,28.7773404 C20.7209099,28.551327 20.8302712,28.2852144 20.8302712,27.9790026 C20.8302712,27.6582094 20.7209099,27.3884515 20.5021872,27.1697288 C20.2834646,26.9510061 20.0137066,26.8416448 19.6929134,26.8416448 Z M21.4426947,11.8372704 C21.4426947,11.7206183 21.4062409,11.6294838 21.3333333,11.563867 C21.2604258,11.4982502 21.1802275,11.4654418 21.0927384,11.4654418 L18.3149606,11.4654418 C18.2420531,11.4654418 18.1655002,11.4982502 18.0853018,11.563867 C18.0051035,11.6294838 17.9650044,11.7206183 17.9650044,11.8372704 C17.9650044,11.9539224 18.0014582,12.0450569 18.0743657,12.1106737 C18.1472733,12.1762905 18.2274716,12.2090989 18.3149606,12.2090989 L21.0927384,12.2090989 C21.1802275,12.2090989 21.2604258,12.1762905 21.3333333,12.1106737 C21.4062409,12.0450569 21.4426947,11.9539224 21.4426947,11.8372704 Z" id="形状备份" fill="#FFFFFF" fill-rule="nonzero"></path>
    </g>
</svg>