<?xml version="1.0" encoding="UTF-8"?>
<svg width="19px" height="19px" viewBox="0 0 19 19" version="1.1" xmlns="http://www.w3.org/2000/svg" xmlns:xlink="http://www.w3.org/1999/xlink">
    <!-- Generator: Sketch 52.2 (67145) - http://www.bohemiancoding.com/sketch -->
    <title>收藏</title>
    <desc>Created with Sketch.</desc>
    <g id="首页" stroke="none" stroke-width="1" fill="none" fill-rule="evenodd">
        <path d="M8.98626928,17.3334634 L8.98768168,17.3349029 C9.12466185,17.4751492 9.30517542,17.5512599 9.50012674,17.5512599 C9.69402042,17.5512599 9.87411454,17.4754418 10.0121201,17.3345356 C10.7415074,16.5950112 11.5071439,15.8591011 12.2859539,15.1494876 C16.9726227,10.8764164 18.5512599,8.7328565 18.5512599,5.85939286 C18.5512599,2.81987071 16.2232723,0.448740106 13.2469421,0.448740106 C13.2466875,0.448740118 13.2466875,0.448740118 13.2464329,0.448740176 C12.483323,0.448950645 11.6725027,0.879414013 10.5043567,1.79320411 C10.341549,1.92056157 9.8062421,2.34907042 9.77887829,2.37076094 L9.50015974,2.59169329 L9.22141573,2.37079307 C9.19494263,2.34981356 8.65875437,1.92071934 8.49574764,1.79324666 C7.32701577,0.879288197 6.5155774,0.448740106 5.75185386,0.448740106 C2.77617417,0.448740125 0.448740106,2.81983319 0.448740106,5.85939286 C0.448740106,8.7339064 2.02843974,10.8793607 6.71260862,15.1486558 C7.49391222,15.860003 8.25920261,16.5957233 8.98626928,17.3334634 Z" id="路径-copy-2" stroke="#FFFFFF" stroke-width="0.897480212" fill-rule="nonzero"></path>
    </g>
</svg>