<?xml version="1.0" encoding="UTF-8"?>
<svg width="20px" height="19px" viewBox="0 0 20 19" version="1.1" xmlns="http://www.w3.org/2000/svg" xmlns:xlink="http://www.w3.org/1999/xlink">
    <!-- Generator: Sketch 52.2 (67145) - http://www.bohemiancoding.com/sketch -->
    <title>收藏</title>
    <desc>Created with Sketch.</desc>
    <g id="首页" stroke="none" stroke-width="1" fill="none" fill-rule="evenodd">
        <path d="M8.99133127,17.6484501 C8.2793018,16.925968 7.52029375,16.1952889 6.73517711,15.4804701 C2.98143325,12.0591929 0.324672748,9.36564906 0.324672748,5.85939286 C0.324672748,2.57402672 2.85095367,2.08600345e-08 6.07652661,0 C7.41537354,0 8.7541571,1.17063307 9.82479949,2.01910023 C10.8951884,1.17063307 12.2334227,0 13.5716149,0 C16.7977793,0 19.3246727,2.57400536 19.3246727,5.85939286 C19.3246727,9.36503002 16.6667505,12.0585739 12.9129644,15.4810891 C12.1348607,16.1900591 11.3752401,16.9206954 10.6562821,17.6496455 C10.4347815,17.8758081 10.1390532,18 9.82479949,18 C9.50908831,18 9.21281071,17.8752104 8.99133127,17.6484501 Z" id="路径-copy-2" fill="#FF3C55" fill-rule="nonzero"></path>
    </g>
</svg>