<?xml version="1.0" encoding="UTF-8"?>
<svg width="25px" height="25px" viewBox="0 0 25 25" version="1.1" xmlns="http://www.w3.org/2000/svg" xmlns:xlink="http://www.w3.org/1999/xlink">
    <!-- Generator: Sketch 52.2 (67145) - http://www.bohemiancoding.com/sketch -->
    <title>更多配套设施</title>
    <desc>Created with Sketch.</desc>
    <g id="首页" stroke="none" stroke-width="1" fill="none" fill-rule="evenodd">
        <g id="分组-9-copy" transform="translate(3.774241, 9.757605)" fill-rule="nonzero" stroke="#333333" stroke-width="0.85">
            <path d="M9,0.5 C7.8970297,0.5 7,1.3970297 7,2.5 C7,3.6029703 7.8970297,4.5 9,4.5 C10.1029703,4.5 11,3.6029703 11,2.5 C11,1.3970297 10.1029703,0.5 9,0.5 Z" id="路径" transform="translate(9.000000, 2.500000) scale(-1, -1) translate(-9.000000, -2.500000) "></path>
            <path d="M16,0.5 C14.8970297,0.5 14,1.3970297 14,2.5 C14,3.6029703 14.8970297,4.5 16,4.5 C17.1029703,4.5 18,3.6029703 18,2.5 C18,1.3970297 17.1029703,0.5 16,0.5 Z" id="路径" transform="translate(16.000000, 2.500000) scale(-1, -1) translate(-16.000000, -2.500000) "></path>
            <path d="M2,0.5 C0.897029703,0.5 -3.10862447e-15,1.3970297 -3.10862447e-15,2.5 C-3.10862447e-15,3.6029703 0.897029703,4.5 2,4.5 C3.1029703,4.5 4,3.6029703 4,2.5 C4,1.3970297 3.1029703,0.5 2,0.5 Z" id="路径" transform="translate(2.000000, 2.500000) scale(-1, -1) translate(-2.000000, -2.500000) "></path>
        </g>
    </g>
</svg>