<?xml version="1.0" encoding="UTF-8"?>
<svg width="22px" height="22px" viewBox="0 0 22 22" version="1.1" xmlns="http://www.w3.org/2000/svg" xmlns:xlink="http://www.w3.org/1999/xlink">
    <!-- Generator: Sketch 52.2 (67145) - http://www.bohemiancoding.com/sketch -->
    <title>位置</title>
    <desc>Created with Sketch.</desc>
    <g id="首页" stroke="none" stroke-width="1" fill="none" fill-rule="evenodd">
        <g id="指缘地址3-copy" fill="#FFFFFF" fill-rule="nonzero">
            <path d="M18.8428372,7.98905425 C18.8294673,9.19313018 18.4441385,10.2940504 17.9236384,11.356533 C17.143743,12.9486811 16.1082047,14.371415 14.9826866,15.7322981 C13.934942,16.9991964 12.8105875,18.1952862 11.6105257,19.3199988 C11.1911666,19.7129053 10.8084976,19.7249674 10.3785945,19.3399048 C8.1526121,17.3462954 6.15211326,15.1605931 4.62507056,12.5749934 C4.37655181,12.1542185 4.15125821,11.7204337 3.95721647,11.2715771 C3.77331496,10.8461338 3.93190152,10.4011162 4.32896158,10.2173886 C4.72716154,10.0331159 5.18473053,10.1947574 5.37843981,10.6152005 C6.29110805,12.5957762 7.62608007,14.2787099 9.08489589,15.8748155 C9.64738184,16.4902427 10.2366551,17.079792 10.84666,17.648677 C10.9221062,17.7189641 10.9695776,17.7760754 11.0767506,17.6683697 C13.0982661,15.6357539 14.9908558,13.5014992 16.368716,10.9644559 C16.7703594,10.2249007 17.1052482,9.45209772 17.2174319,8.60997919 C17.3864912,7.34052153 17.1309906,6.13279617 16.5274926,5.01881857 C15.3781319,2.8971709 13.5940925,1.68726536 11.1591311,1.60195392 C8.38529123,1.50481739 5.9206928,3.29232865 5.04765935,5.93212472 C4.82835014,6.59527885 4.71220058,7.27492649 4.70315274,7.97331897 C4.69669339,8.47262777 4.36862013,8.82517722 3.91641809,8.82401603 C3.4627912,8.82292595 3.13155951,8.46212972 3.13288937,7.97083072 C3.14314833,4.25729561 5.70641811,1.04029668 9.31885738,0.207301739 C12.307613,-0.481967084 15.5092899,0.757489387 17.3183117,3.30131011 C18.3175638,4.70638923 18.8140076,6.27265955 18.8428372,7.98905425 Z M2.13446845,20.3914155 C8.04676897,20.3914155 13.9251342,20.3914155 19.8085338,20.3914155 C19.8076552,20.2900134 19.7407106,20.2238023 19.6982974,20.1495576 C18.9312496,18.8052866 18.1625156,17.4618687 17.3924043,16.1193276 C17.2271446,15.831283 17.2169094,15.5444234 17.4007635,15.2658342 C17.5663793,15.0147816 17.8091749,14.8932839 18.1111258,14.9139246 C18.382466,14.9325983 18.5960045,15.0655893 18.730321,15.2993189 C19.7814378,17.1288224 20.8338845,18.9575912 21.8741011,20.7932323 C22.1952164,21.3599845 21.7981563,21.9647477 21.1228692,21.9649136 C17.6050404,21.9660748 14.0872116,21.9654586 10.5694778,21.9654586 C7.35435986,21.9654586 4.13907564,21.9493916 0.92424265,21.9778051 C0.202718954,21.9842272 -0.23965157,21.3267605 0.156981046,20.66081 C1.19489419,18.9182531 2.18151248,17.1452685 3.18966986,15.3850095 C3.40679429,15.0059661 3.74619516,14.8394903 4.10162567,14.931603 C4.62730282,15.0680539 4.85606357,15.6249716 4.57745657,16.1166971 C4.03940691,17.0665214 3.4935443,18.0119615 2.95145757,18.959487 C2.68491437,19.4254058 2.41946355,19.8918223 2.13446845,20.3914155 Z M14.1278675,7.85774577 C14.1280575,9.58935435 12.7121299,10.9969217 10.9739234,10.9930116 C9.25060667,10.9891726 7.84500924,9.58075212 7.84505674,7.85795905 C7.84515173,6.12435986 9.25758847,4.72022864 10.9981697,4.72347522 C12.7213914,4.7266507 14.1277251,6.13509487 14.1278675,7.85774577 Z M10.9960324,6.290883 C10.1237826,6.29111998 9.41738616,6.99034188 9.41593755,7.85487833 C9.41448894,8.72917823 10.1316193,9.43377947 11.0145318,9.425509 C11.8622978,9.41757029 12.5607626,8.7035137 12.5571055,7.84855106 C12.5534483,6.99498661 11.8476693,6.29069343 10.9960324,6.290883 Z" id="形状"></path>
        </g>
    </g>
</svg>