<svg viewBox="0 0 30 39" xmlns="http://www.w3.org/2000/svg" class="map__icon__map-pin map__icon__map-pin--pro">
      <g transform="translate(1)" fill="none" fill-rule="evenodd">
        <ellipse fill="#63656A" opacity=".5" cx="14" cy="37" rx="7" ry="2"></ellipse>
        <path d="M27.667 14.282C27.667 6.748 21.56.64 14.027.64S.387 6.748.387 14.28c0 7.532 12.472 21.802 12.472 21.802.643.765 1.693.767 2.342-.01 0 0 12.466-14.26 12.466-21.791z" stroke="#F9A600" fill="#FCCE01"></path>
        <path d="M16 21.609V18a1 1 0 0 0-1-1h-2a1 1 0 0 0-1 1v3.609H8.935c-.611 0-1.108-.497-1.108-1.108v-5.802h-.943c-.598 0-.793-.396-.838-.518-.045-.12-.157-.546.295-.938l6.89-5.962c.211-.18.485-.281.771-.281.286 0 .56.1.768.283l2.141 1.852c.15-.431.562-.743 1.046-.743h1.107c.61 0 1.107.496 1.107 1.107v2.317c.004.06.065.192.106.231l1.381 1.196c.453.392.341.818.296.94-.044.12-.239.517-.838.517h-.943v5.8c0 .612-.497 1.109-1.108 1.109H16z" fill="#FFF"></path>
      </g>
    </svg>