<?xml version="1.0" encoding="UTF-8"?>
<svg width="12px" height="12px" viewBox="0 0 12 12" version="1.1" xmlns="http://www.w3.org/2000/svg" xmlns:xlink="http://www.w3.org/1999/xlink">
    <!-- Generator: Sketch 52.2 (67145) - http://www.bohemiancoding.com/sketch -->
    <title>附近学校</title>
    <desc>Created with Sketch.</desc>
    <g id="首页" stroke="none" stroke-width="1" fill="none" fill-rule="evenodd">
        <g id="学校-copy" transform="translate(0.000000, 1.000000)" fill="#C9C9C9" fill-rule="nonzero">
            <path d="M5.89370988,7.29135053 C5.95994865,7.32169954 6.03697047,7.32169954 6.10474968,7.29135053 L9.71091142,5.60698027 L9.71091142,8.01972686 C9.71091142,8.11229135 9.65853659,8.19726859 9.57381258,8.23975721 L6.10937099,9.96054628 C6.04005135,9.99544765 5.95840822,9.99544765 5.88754814,9.96054628 L1.50192555,8.24127466 C1.41720154,8.20030349 1.3648267,8.11532625 1.3648267,8.02124431 L1.3648267,5.60698027 L5.89370988,7.29135053 Z M11.2451861,2.85280728 L11.2451861,9.53110774 C11.2451861,9.7814871 11.0387677,9.98482549 10.7845956,9.98482549 C10.5304236,9.98482549 10.3240051,9.7814871 10.3240051,9.53110774 L10.3240051,3.04097117 L9.71245186,3.18209408 L9.71245186,4.85735964 L6,6.59028832 L1.3648267,4.85735964 L1.3648267,3.12594841 L0.163286264,2.74355083 C0.0677792041,2.70713202 0.00462130937,2.61608498 0.00462130937,2.51593323 C0.00462130937,2.41578149 0.0677792041,2.32473445 0.163286264,2.28831563 L5.90757381,0.0273141123 C5.9661104,0.00455235205 6.03080873,0.00455235205 6.08934531,0.0273141123 L11.8351733,2.28831563 C11.9291399,2.3262519 11.9922978,2.41578149 11.9922978,2.51593323 C11.9922978,2.61608498 11.9306804,2.70713202 11.8351733,2.74355083 L11.2451861,2.85280728 Z" id="形状"></path>
        </g>
    </g>
</svg>