<?xml version="1.0" encoding="UTF-8"?>
<svg width="12px" height="12px" viewBox="0 0 12 12" version="1.1" xmlns="http://www.w3.org/2000/svg" xmlns:xlink="http://www.w3.org/1999/xlink">
    <!-- Generator: Sketch 52.2 (67145) - http://www.bohemiancoding.com/sketch -->
    <title>房源概括</title>
    <desc>Created with Sketch.</desc>
    <g id="首页" stroke="none" stroke-width="1" fill="none" fill-rule="evenodd">
        <g id="简介-copy" transform="translate(2.000000, 1.000000)" fill="#C9C9C9" fill-rule="nonzero">
            <path d="M7.50005838,0 L1.49994162,0 C0.675008764,0 0,0.642869055 0,1.42852377 L0,8.57147623 C0,9.35713095 0.675008753,10 1.49994161,10 L7.50005838,10 C8.32499124,10 8.99999999,9.35713095 8.99999999,8.57147623 L9,1.42852377 C9,0.642869055 8.32499124,0 7.50005838,0 Z M1.87510217,1.42852377 L4.1250146,1.42852377 C4.34990075,1.42852377 4.50017515,1.57130943 4.50017515,1.78582152 C4.50017515,2 4.35025104,2.14311926 4.1250146,2.14311926 L1.87510217,2.14311926 C1.65021602,2.14311926 1.49994162,2.00033361 1.49994162,1.78582152 C1.49994162,1.57130943 1.64986572,1.42852377 1.87510217,1.42852377 Z M7.12489783,8.57147623 L1.87510217,8.57147623 C1.65021602,8.57147623 1.49994162,8.42869057 1.49994162,8.21417848 C1.49994162,7.99966639 1.64986573,7.85688074 1.87510217,7.85688074 L7.12524812,7.85688074 C7.35013428,7.85688074 7.50040867,7.99966639 7.50040867,8.21417848 C7.50040867,8.42869057 7.35013428,8.57147623 7.12489783,8.57147623 Z M7.12489783,6.42869058 L1.87510217,6.42869058 C1.65021602,6.42869058 1.49994162,6.28590492 1.49994162,6.07139283 C1.49994162,5.85721435 1.64986573,5.71409508 1.87510217,5.71409508 L7.12524812,5.71409508 C7.35013428,5.71409508 7.50040867,5.85688074 7.50040867,6.07139283 C7.50005838,6.28557131 7.35013428,6.42869058 7.12489783,6.42869058 Z M7.12489783,4.28557131 L1.87510217,4.28557131 C1.65021602,4.28557131 1.49994162,4.14278565 1.49994162,3.92827356 C1.49994162,3.71409508 1.64986573,3.57097582 1.87510217,3.57097582 L7.12524812,3.57097582 C7.35013428,3.57097582 7.50040867,3.71376147 7.50040867,3.92827356 C7.50005838,4.14278565 7.35013428,4.28557131 7.12489783,4.28557131 Z" id="形状"></path>
        </g>
    </g>
</svg>