<?xml version="1.0" encoding="UTF-8"?>
<svg width="12px" height="12px" viewBox="0 0 12 12" version="1.1" xmlns="http://www.w3.org/2000/svg" xmlns:xlink="http://www.w3.org/1999/xlink">
    <!-- Generator: Sketch 52.2 (67145) - http://www.bohemiancoding.com/sketch -->
    <title>房源编号</title>
    <desc>Created with Sketch.</desc>
    <g id="首页" stroke="none" stroke-width="1" fill="none" fill-rule="evenodd">
        <g id="编号-copy" transform="translate(1.000000, 1.000000)" fill="#C9C9C9" fill-rule="nonzero">
            <path d="M10.5458255,0.460178971 C9.50006264,-0.585583893 5.82729306,0.485378076 5.82729306,0.485378076 L5.78949441,0.523176734 L0.0692975391,6.2433736 C-0.0188993289,6.33157047 -0.0188993289,6.4827651 0.0692975391,6.57096197 L4.42874273,10.9304072 C4.5169396,11.018604 4.66813423,11.018604 4.7563311,10.9304072 L10.476528,5.21021029 L10.5143266,5.17241163 C10.5143266,5.17871141 11.5852886,1.49964206 10.5458255,0.460178971 Z M9.0842774,3.91245638 C8.52989709,4.46683669 7.63532886,4.46683669 7.08724832,3.91245638 C6.53286801,3.35807606 6.53286801,2.46350783 7.08724832,1.91542729 C7.64162864,1.36104698 8.53619687,1.36104698 9.0842774,1.91542729 C9.63865772,2.46350783 9.63865772,3.35807606 9.0842774,3.91245638 Z" id="形状"></path>
        </g>
    </g>
</svg>