<?xml version="1.0" encoding="UTF-8"?>
<svg width="12px" height="12px" viewBox="0 0 12 12" version="1.1" xmlns="http://www.w3.org/2000/svg" xmlns:xlink="http://www.w3.org/1999/xlink">
    <!-- Generator: Sketch 52.2 (67145) - http://www.bohemiancoding.com/sketch -->
    <title>地址</title>
    <desc>Created with Sketch.</desc>
    <g id="首页" stroke="none" stroke-width="1" fill="none" fill-rule="evenodd">
        <g id="108导航、地址、位置-copy" transform="translate(2.000000, 1.000000)" fill="#C9C9C9" fill-rule="nonzero">
            <path d="M4.50125348,0.00979955457 C2.02061281,0.00979955457 0.011281337,1.97216036 0.011281337,4.39755011 C0.011281337,6.82293987 3.52980501,10.5296214 3.52980501,10.5296214 C4.06504178,11.1420935 4.94498607,11.1445434 5.47395543,10.5271715 C5.47395543,10.5271715 8.98997214,6.82171492 8.98997214,4.39755011 C8.98997214,1.9733853 6.98189415,0.00979955457 4.50125348,0.00979955457 Z M4.50125348,6.28641425 C3.35431755,6.28641425 2.42423398,5.37628062 2.42423398,4.25668151 C2.42423398,3.13708241 3.35557103,2.22572383 4.50125348,2.22572383 C5.64693593,2.22572383 6.57827298,3.13585746 6.57827298,4.25545657 C6.57827298,5.37505568 5.64693593,6.28641425 4.50125348,6.28641425 Z" id="形状"></path>
        </g>
    </g>
</svg>