<?xml version="1.0" encoding="UTF-8"?>
<svg width="18px" height="18px" viewBox="0 0 18 18" version="1.1" xmlns="http://www.w3.org/2000/svg" xmlns:xlink="http://www.w3.org/1999/xlink">
    <!-- Generator: Sketch 52.2 (67145) - http://www.bohemiancoding.com/sketch -->
    <title>公寓类型解释</title>
    <desc>Created with Sketch.</desc>
    <g id="首页" stroke="none" stroke-width="1" fill="none" fill-rule="evenodd">
        <path d="M9.8701385,6.04559444 C9.64732675,5.77040239 9.27753743,5.63280636 8.76233414,5.63280636 C8.12438893,5.63280636 7.68345622,5.86969043 7.43953599,6.34267677 C7.30272177,6.60614188 7.22376042,6.98609454 7.20499732,7.48253475 L6.18553586,7.48253475 C6.18553586,6.65774039 6.41851094,5.99477773 6.88446115,5.49286494 C7.35041131,4.99095216 7.98992011,4.73999577 8.80298754,4.73999577 C9.55507489,4.73999577 10.1570575,4.95420778 10.6097172,5.38419535 C11.0623768,5.81418293 11.2883157,6.36300344 11.2883157,7.03065688 C11.2883157,7.435627 11.2046636,7.76398116 11.0389229,8.01571933 C10.8731823,8.26745751 10.5385738,8.63802863 10.0343156,9.12665088 C9.66765345,9.48236788 9.42998759,9.78257739 9.32131801,10.028843 C9.21264843,10.2751086 9.15792273,10.6386436 9.15792273,11.1194479 L8.13846127,11.1194479 C8.13846127,10.5737545 8.20335031,10.1336036 8.33312837,9.7997769 C8.46290645,9.46516837 8.74669825,9.08287033 9.18606737,8.65131916 L9.64419958,8.19865951 C9.7817956,8.06888145 9.89202878,7.93284902 9.97568092,7.79212581 C10.128131,7.5435148 10.204747,7.28630404 10.204747,7.01892996 C10.204747,6.64523166 10.093732,6.32078649 9.8701385,6.04559444 Z M18,9 C18,13.9704545 13.9704545,18 9,18 C4.02954546,18 3.73034936e-14,13.9704545 3.73034936e-14,9 C3.73034936e-14,4.02954546 4.02954546,3.73034936e-14 9,3.73034936e-14 C13.9704545,3.73034936e-14 18,4.02954546 18,9 Z M1.18204404,9 C1.18204404,13.3178571 4.68214293,16.817956 9,16.817956 C13.3178571,16.817956 16.817956,13.3178571 16.817956,9 C16.817956,4.68214293 13.3178571,1.18204404 9,1.18204404 C4.68214293,1.18204404 1.18204404,4.68214293 1.18204404,9 Z M8.11500738,12.0693295 L9.25486536,12.0693295 L9.25486536,13.2600042 L8.11500738,13.2600042 L8.11500738,12.0693295 Z" id="合并形状-copy" fill="#38B7FF"></path>
    </g>
</svg>