<?xml version="1.0" encoding="UTF-8"?>
<svg width="28px" height="28px" viewBox="0 0 28 28" version="1.1" xmlns="http://www.w3.org/2000/svg" xmlns:xlink="http://www.w3.org/1999/xlink">
    <!-- Generator: Sketch 52.2 (67145) - http://www.bohemiancoding.com/sketch -->
    <title>bicycle</title>
    <desc>Created with Sketch.</desc>
    <g id="房源" stroke="none" stroke-width="1" fill="none" fill-rule="evenodd">
        <g id="骑车-copy" transform="translate(1.000000, 2.000000)" fill="#C2BFCC" fill-rule="nonzero">
            <path d="M19.721763,9.98899132 C19.8128917,10.0220995 19.888928,10.0438134 19.9368286,10.0475615 C19.9584676,10.048636 19.9790321,10.0638532 19.9940495,10.0828935 C20.0088919,10.103583 20.0155885,10.1293199 20.0131897,10.1528079 L19.9094675,11.0421054 L19.8822813,11.0936042 C19.7004489,11.1839582 18.4657273,10.8952051 17.8892207,10.7004792 L17.8399957,10.6820886 C16.4303381,10.1726229 15.0752278,9.1629867 14.015792,7.92614116 C13.9084966,7.80013029 13.805524,7.66782263 13.7027013,7.53586479 C14.0053723,6.54124598 14.868458,6.43642432 15.5232248,6.51620872 C16.2592252,7.62981697 17.0552201,8.52283749 18.1504877,9.20206681 C18.2352696,9.25583944 19.2131469,9.80675906 19.7217131,9.98899132 L19.721763,9.98899132 Z" id="Shape"></path>
            <path d="M21.2546829,2.26084939 C21.2546829,3.50229258 20.2478703,4.50933007 19.0061772,4.50933007 C17.7641843,4.50933007 16.7576466,3.5022676 16.7576466,2.26084939 C16.7576466,1.01853164 17.7641593,0.0119439214 19.0061772,0.0119439214 C20.2478953,0.0119439214 21.2546829,1.01850665 21.2546829,2.26084939 Z" id="Shape"></path>
            <path d="M4.46047994,19.7641665 C4.36397905,19.7641665 4.27577394,19.7126677 4.22704874,19.6293351 C4.17889824,19.5466522 4.17849844,19.4445791 4.22657398,19.3606718 L8.59612519,11.7193857 C8.66973773,11.5898266 8.83442891,11.5450994 8.96378807,11.6192366 C9.09254755,11.6929241 9.13744969,11.8571406 9.06373721,11.9865247 L4.92454376,19.2248159 L12.6956888,19.2248159 L16.640881,12.2033144 L9.56180873,12.2033144 C9.41280956,12.2033144 9.29189609,12.0832505 9.29189609,11.9342763 C9.29189609,11.7854521 9.41280956,11.6648134 9.56180873,11.6648134 L17.1014966,11.6648134 C17.1967731,11.6648134 17.2859027,11.7160374 17.3340782,11.7983705 C17.3820788,11.8800539 17.3826285,11.9828266 17.3361771,12.0661092 L13.0885888,19.6267864 C13.041038,19.7110935 12.9505341,19.7641665 12.8539333,19.7641665 L4.46047994,19.7641665 Z" id="Shape"></path>
            <path d="M0.0235130336,19.2704677 C0.0240877411,16.6637943 2.13738722,14.5508697 4.74416056,14.550245 C7.3511338,14.5508946 9.46433333,16.6637943 9.46483308,19.2704927 L9.46435832,19.2704927 C9.46435832,21.8779657 7.3511338,23.9913651 4.74418555,23.9913651 C2.13741221,23.9913401 0.0241127284,21.8779407 0.0235380208,19.2704677 L0.0235130336,19.2704677 Z M0.562363797,19.2704677 C0.56666161,21.5802422 2.43496078,23.4482665 4.74416056,23.4524894 C7.05348528,23.4482665 8.92185941,21.5802422 8.92598232,19.2704677 L8.92553254,19.2704677 C8.9218844,16.9614428 7.05351027,15.0935685 4.74418555,15.0892706 C2.43498577,15.0935685 0.566686597,16.9618426 0.562388784,19.2704677 L0.562363797,19.2704677 Z" id="Shape"></path>
            <path d="M15.878369,19.2708425 C15.878369,16.6637943 17.9914936,14.5508697 20.5985418,14.55022 C23.2061148,14.5508697 25.3189145,16.6637693 25.3189145,19.2708425 C25.3189145,21.8779157 23.2060898,23.9909403 20.5985418,23.991515 C17.9919434,23.9909403 15.878369,21.8779407 15.878369,19.2708425 Z M16.4170449,19.2708425 C16.4212428,21.5802422 18.2895169,23.4486663 20.5985168,23.4524644 C22.9082913,23.4486663 24.7760408,21.5802172 24.7803386,19.2708425 C24.7760408,16.9614678 22.9083163,15.0931437 20.5985168,15.0894955 C18.289492,15.0931437 16.4212178,16.9614678 16.4170449,19.2708425 Z" id="Shape"></path>
            <path d="M20.553065,19.578311 C20.5497916,19.5718643 18.4591556,15.1583855 17.2603907,12.7315955 C16.8856314,11.970233 16.581861,11.3814826 16.4998528,11.2524983 C16.4664697,11.223613 16.4272897,11.1693906 16.4146961,11.0543241 C16.4158205,10.9398824 16.481762,10.8706676 16.5127962,10.8459552 C16.5475285,10.8181943 16.5685178,10.8107481 16.583935,10.8038766 C16.61342,10.7925574 16.625214,10.791383 16.6348091,10.7887093 C16.6534996,10.785461 16.6598963,10.785461 16.6668927,10.7843365 C16.6797362,10.783362 16.6877571,10.783362 16.6980519,10.7828123 C16.7167674,10.7823126 16.7397557,10.7823126 16.768666,10.7823126 C17.2418251,10.7823126 19.4739142,10.832587 20.034304,10.8451806 L21.095364,9.60478685 C21.1917899,9.4917194 21.3616035,9.47852611 21.4751707,9.5752269 C21.5881632,9.67172778 21.6014314,9.84196615 21.5045557,9.95495864 L20.3601881,11.2925279 C20.3076399,11.3536218 20.2300793,11.3884541 20.1491705,11.3869299 C20.1463719,11.3869299 18.0993387,11.3397289 17.1548444,11.3250863 C17.2776819,11.5596919 17.4408239,11.8822528 17.6309021,12.2651329 C18.0238771,13.0571548 18.5336677,14.1078701 19.0386357,15.1568862 C20.0486967,17.2548185 21.0397423,19.3476035 21.0397423,19.3476035 L21.040317,19.3481282 C21.1034599,19.4824848 21.046239,19.643228 20.9118324,19.7069206 C20.8747013,19.7243117 20.8356212,19.7325825 20.7971407,19.7325825 C20.6960922,19.7325575 20.5990915,19.6756615 20.553065,19.5782861 L20.553065,19.578311 Z" id="Shape"></path>
            <path d="M8.81164051,11.9855502 L6.76950481,11.9323023 C6.62108035,11.9287041 6.50339024,11.805142 6.50761309,11.6560679 C6.5113362,11.5074935 6.63487333,11.3898034 6.78394746,11.3936514 L8.82610814,11.4467994 C8.97463256,11.4505225 9.09207279,11.5741346 9.08797487,11.7232337 C9.08435172,11.8693094 8.96443774,11.9857251 8.818537,11.9857251 C8.81613822,11.9857251 8.81393934,11.9855252 8.81164051,11.9855252 L8.81164051,11.9855502 Z" id="Shape"></path>
            <path d="M11.2306594,9.67415155 C11.1871815,9.64306737 11.089931,9.56865524 11.089931,9.56865524 C11.0799611,9.5620586 10.9376835,8.67810847 11.089931,9.35733779 L10.7274655,8.82880677 C10.7339622,8.82630804 10.7405838,8.82325959 10.7443819,8.81708773 C10.7553763,8.80122081 10.7510035,8.77870727 10.7349867,8.76828757 C10.6355872,8.70756847 10.4660235,8.68755366 10.3558296,8.66181676 C10.08974,8.59974835 9.82462497,8.54115317 9.55990969,8.47451208 C9.26623415,8.4003998 8.96611189,8.36241913 8.67446032,8.27813702 C8.47111381,8.21964179 9.00766574,7.3986846 8.81673791,7.31472733 C8.76398976,7.29156412 8.24590343,7.62257066 8.20614866,7.65253041 C8.10495016,7.72904147 7.85305336,8.09440553 7.79463309,8.20487431 C7.64153601,8.49405214 7.46435118,8.91376353 7.4265954,9.23747379 C7.34691095,9.92714779 7.51632473,10.6264669 7.97246759,11.1341085 C8.56589058,11.7949222 9.36380949,12.2087616 10.0770465,12.7190019 C10.5909849,13.0867648 11.1238138,13.4230186 11.4831809,13.958796 C11.815037,14.453969 11.9343263,15.0367973 11.9287791,15.6257226 C11.917185,16.8067965 11.5800566,17.9301249 11.154748,19.0216443 C11.1184915,19.114722 11.0766128,19.2037767 11.0364832,19.2947304 C11.0314108,19.3060746 11.0326852,19.3186932 11.0387821,19.3291878 C11.0453787,19.3391578 11.0563981,19.3458543 11.0680921,19.3458543 L12.4558109,19.3458543 L12.4846212,19.3297625 C12.8315447,18.8053544 13.0702232,18.1982384 13.298482,17.6156099 C13.7369839,16.4978788 14.0931526,15.3486886 13.9496756,14.1322827 C13.8773874,13.5213936 13.6607227,12.942838 13.3491812,12.4148317 C12.9412638,11.7242832 12.188447,10.4137252 11.5829301,9.88519415 C11.4078192,9.73302159 11.4194883,9.80920782 11.2306844,9.67412656 L11.2306594,9.67415155 Z" id="Shape"></path>
            <path d="M17.0414521,4.45051001 C16.9127176,3.83085037 16.3154216,3.36398797 15.4797969,3.25541823 C14.2297081,3.09322577 13.0086795,3.67882774 11.9998679,4.3570076 C11.5602167,4.65215739 11.1393309,4.9743684 10.7179453,5.29483031 C10.2486842,5.65174867 9.76238165,6.01443908 9.32952694,6.4156349 C8.75511927,6.94858867 8.21082128,7.54695914 7.80235416,8.1986025 L11.1464772,10.1604541 C11.1514747,10.1518334 11.152824,10.1395647 11.1596955,10.1336427 C11.8500942,9.48669695 13.0879392,8.71546445 13.6770144,8.21966678 C14.6787046,7.37602113 15.9204226,6.79064405 16.7047985,5.70364725 C17.0244358,5.26034786 17.1196873,4.82701839 17.0414521,4.450535 L17.0414521,4.45051001 Z" id="Shape"></path>
        </g>
    </g>
</svg>