<?xml version="1.0" encoding="UTF-8"?>
<svg width="28px" height="28px" viewBox="0 0 28 28" version="1.1" xmlns="http://www.w3.org/2000/svg" xmlns:xlink="http://www.w3.org/1999/xlink">
    <!-- Generator: Sketch 52.2 (67145) - http://www.bohemiancoding.com/sketch -->
    <title>subway</title>
    <desc>Created with Sketch.</desc>
    <g id="房源" stroke="none" stroke-width="1" fill="none" fill-rule="evenodd">
        <g id="地铁-copy" transform="translate(5.000000, 2.000000)" fill="#C2BFCC" fill-rule="nonzero">
            <path d="M18.8550228,22.8758598 L15.7135913,22.8758598 L15.0560355,21.390424 L3.80536868,21.390424 L3.14783908,22.8758598 L0.00640755249,22.8758598 L3.22086887,18.2245969 C2.58768253,18.0460099 2.06821141,17.6888359 1.66237703,17.1530488 C1.25646423,16.6173401 1.05350781,16.0004175 1.05350781,15.302307 L1.05350781,4.63595693 C1.05350781,4.2139373 1.16311788,3.8120512 1.38228568,3.43056008 C1.60147965,3.04909512 1.86938628,2.69994839 2.18592716,2.38345982 C2.50254648,2.06686666 2.82724534,1.79495944 3.15994533,1.56758135 C3.49282834,1.34033398 3.78094695,1.16987884 4.02458876,1.05616363 C4.26807369,0.942605305 4.53598034,0.820862855 4.82815179,0.690936228 C5.12042785,0.561009626 5.4694177,0.447451303 5.87525205,0.349973645 C6.28116485,0.252548293 6.7520279,0.171491244 7.28776274,0.106488721 C7.82344528,0.0415384769 8.44852591,0.00903722822 9.16284774,0.00903722822 C9.97454261,0.00903722822 10.6888906,0.0456436482 11.3057871,0.118647295 C11.9227881,0.191677081 12.4625759,0.289128573 12.9252809,0.410871048 C13.3879598,0.532587358 13.7938464,0.670619693 14.1428363,0.824811112 C14.4919569,0.979028696 14.8125506,1.13737757 15.1047744,1.29975316 C15.396972,1.46207645 15.7054333,1.64874301 16.030106,1.85988355 C16.3549356,2.07086722 16.6471594,2.31029931 16.9068557,2.57820594 C17.1666043,2.84611257 17.3816932,3.1504949 17.5521744,3.49140517 C17.7226557,3.83236776 17.8079225,4.2139373 17.8079225,4.63593079 L17.8079225,15.3022548 C17.8079225,16.0003652 17.600861,16.6172878 17.1869209,17.1529965 C16.7729808,17.6887836 16.2493261,18.0459576 15.6161659,18.2245446 L18.8550228,22.8758598 Z M7.14159858,1.5920292 C6.93056263,1.5920292 6.75202792,1.66503284 6.60586374,1.81119702 C6.45969956,1.95723046 6.38666977,2.14394931 6.38666977,2.37119668 C6.38666977,2.58233725 6.45969956,2.7608981 6.60586374,2.90703611 C6.75202792,3.05306954 6.9305626,3.12623008 7.14159858,3.12623008 L11.7685706,3.12623008 C11.9795804,3.12623008 12.1580889,3.05309571 12.3042531,2.90703611 C12.4504173,2.7608981 12.5234732,2.58233725 12.5234732,2.37119668 C12.5234732,2.14394931 12.4504173,1.95725662 12.3042531,1.81119702 C12.1580889,1.66505901 11.9795804,1.5920292 11.7685706,1.5920292 L7.14159858,1.5920292 Z M2.56339155,9.21429469 L16.2737478,9.21429469 L16.2737478,4.63595693 L2.56339155,4.63595693 L2.56339155,9.21429469 Z M3.34271593,17.1287839 C3.63488738,17.1287839 3.88642573,17.0232267 4.09759243,16.8121646 C4.30857611,16.6011025 4.41410717,16.3494334 4.41410717,16.057262 C4.41410717,15.7487484 4.30857611,15.4891043 4.09759243,15.2779114 C3.88642573,15.0669539 3.6348874,14.961449 3.34271593,14.961449 C3.03422845,14.961449 2.77440139,15.0669278 2.56336541,15.2779114 C2.35238173,15.4890782 2.24677225,15.7487484 2.24677225,16.057262 C2.24677225,16.3494334 2.3524079,16.6011025 2.56336541,16.8121646 C2.77440136,17.0232267 3.03422845,17.1287839 3.34271593,17.1287839 Z M14.3498717,19.8804879 L13.668025,18.3462609 L5.1934315,18.3462609 L4.48726765,19.8804879 L14.3498717,19.8804879 Z M14.4228754,16.057262 C14.4228754,16.3494334 14.5283803,16.6011025 14.7395208,16.8121646 C14.9505045,17.0232267 15.2102531,17.1287839 15.5188452,17.1287839 C15.8272803,17.1287839 16.0870028,17.0232267 16.2980126,16.8121646 C16.5091532,16.6011025 16.6146319,16.3494334 16.6146319,16.057262 C16.6146319,15.7487484 16.5091532,15.4891043 16.2980126,15.2779114 C16.087029,15.0669539 15.8272803,14.961449 15.5188452,14.961449 C15.2102531,14.961449 14.9505306,15.0669278 14.7395208,15.2779114 C14.5283803,15.4890782 14.4228754,15.7487484 14.4228754,16.057262 Z" id="Shape"></path>
        </g>
    </g>
</svg>