<?xml version="1.0" encoding="UTF-8"?>
<svg width="28px" height="28px" viewBox="0 0 28 28" version="1.1" xmlns="http://www.w3.org/2000/svg" xmlns:xlink="http://www.w3.org/1999/xlink">
    <!-- Generator: Sketch 52.2 (67145) - http://www.bohemiancoding.com/sketch -->
    <title>taxi</title>
    <desc>Created with Sketch.</desc>
    <g id="房源" stroke="none" stroke-width="1" fill="none" fill-rule="evenodd">
        <g id="出租车-copy" transform="translate(2.000000, 2.000000)" fill="#C2BFCC" fill-rule="nonzero">
            <path d="M22.7119574,9.2783592 L20.6626447,4.04372648 C20.277488,3.04639194 19.4423348,2.19481012 17.8648049,2.19481012 L14.970963,2.19481014 C14.970963,2.19481014 14.0306502,0.00286100412 13.5479059,0.00286100412 L11.4604602,0.00286100412 C10.9785906,0.00286100412 10.0381412,2.19481014 10.0381412,2.19481014 L7.10777904,2.19481014 C5.53262739,2.19481014 4.69662677,3.04707536 4.31218076,4.04372651 L2.26221203,9.27835922 C1.44963792,9.38127726 0.0101522078,10.325663 0.0101522078,12.1135666 L0.0101522078,18.7729239 L2.3168283,18.7729239 L2.3168283,20.4315034 C2.3168283,23.0508426 5.43670722,23.0203908 5.43670722,20.4315034 L5.43670722,18.7736893 L19.5366694,18.7736893 L19.5366694,20.4323234 C19.5366694,23.0212109 22.6573138,23.0515533 22.6573138,20.4323234 L22.6573138,18.7736893 L24.9631425,18.7736893 L24.9631424,12.1144413 C24.9631424,10.3256903 23.5236567,9.38130456 22.7119574,9.2783592 Z M5.02886203,14.7415164 C4.05328652,14.7415164 3.26022994,13.9344367 3.26022994,12.9377856 C3.26022994,11.9412711 4.05325919,11.133508 5.02886203,11.133508 C6.00512093,11.133508 6.7981775,11.9412711 6.7981775,12.9377856 C6.7981775,13.9344367 6.00512093,14.7415164 5.02886203,14.7415164 Z M4.3839637,9.15524025 L5.92789823,5.10581874 C6.12055861,4.52718155 6.40982252,4.1084842 7.08670337,4.10143165 L17.8905276,4.10143165 C18.5642375,4.10845687 18.8535834,4.52718155 19.0461071,5.10581874 L20.5901783,9.15524025 L4.3839637,9.15524025 Z M19.94446,14.7415164 C18.9674903,14.7415164 18.1759919,13.9344367 18.1759919,12.9377856 C18.1759919,11.9412711 18.9674903,11.133508 19.94446,11.133508 C20.9215662,11.133508 21.7138028,11.9412711 21.7138028,12.9377856 C21.7146228,13.9344367 20.9215662,14.7415164 19.94446,14.7415164 Z" id="Shape"></path>
        </g>
    </g>
</svg>