<?xml version="1.0" encoding="UTF-8"?>
<svg width="28px" height="28px" viewBox="0 0 28 28" version="1.1" xmlns="http://www.w3.org/2000/svg" xmlns:xlink="http://www.w3.org/1999/xlink">
    <!-- Generator: Sketch 52.2 (67145) - http://www.bohemiancoding.com/sketch -->
    <title>walk</title>
    <desc>Created with Sketch.</desc>
    <g id="房源" stroke="none" stroke-width="1" fill="none" fill-rule="evenodd">
        <path d="M11.3899352,16.7025983 C11.358205,16.8886668 11.7335302,20.8938775 4.94642598,24.0801693 C4.14240325,24.4580024 3.78062899,25.4511966 4.13745058,26.2994762 C4.40181424,26.9272569 4.98322443,27.298797 5.59345227,27.298797 C5.8100858,27.298797 6.02877211,27.2526909 6.23937515,27.1539411 C11.7722533,24.5566935 13.660598,21.3967187 14.2718011,19.2079077 C16.1988946,20.1412453 19.1089476,22.1442519 19.6108844,25.8542897 C19.7350855,26.7738864 20.5430857,27.4122663 21.4127759,27.2820712 C22.2833643,27.1497132 22.8876129,26.2984192 22.7633862,25.3787638 C22.054081,20.1338268 18.1932345,17.4132838 15.6291422,16.1643775 C15.2845388,15.2545578 15.1007859,14.5063297 15.013389,13.8882478 C17.1503207,15.0320135 19.9377605,15.5820569 22.8627984,14.0364704 C23.6489351,13.6218875 23.9679319,12.6119088 23.5743632,11.780492 C23.1817696,10.9500148 22.2247023,10.6130812 21.4385657,11.0287798 C17.5446292,13.086456 14.2758299,9.18418392 14.1426216,9.02258263 C13.7798979,8.57432301 13.221352,8.35699511 12.6697348,8.45462924 C10.3053456,8.87143375 5.83595247,10.9678759 5.83492602,15.9272311 C5.83492602,16.8552837 6.54754283,17.6090316 7.42708697,17.6090316 C8.30668249,17.6090316 9.0192993,16.8563994 9.01927364,15.9272311 C9.01927364,14.2062536 10.0818385,13.1641836 11.1353053,12.5540682 C11.0893784,13.5231964 11.1919563,14.6838739 11.5564968,16.0478253 C11.5564968,16.0478253 11.4472613,16.3664378 11.3899352,16.7025983 Z M17.2627342,3.39199288 C17.2627342,5.26489243 15.8246185,6.78396618 14.0515704,6.78396618 C12.2785223,6.78396618 10.8403553,5.26489243 10.8403553,3.39199288 C10.8403553,1.51907375 12.2785223,0 14.0515704,0 C15.8246185,0 17.2627342,1.51907375 17.2627342,3.39199288 Z" id="Shape-Copy" fill="#C2BFCC" fill-rule="nonzero"></path>
    </g>
</svg>